Coordinates
version=1
nRows=47
nColumns=20
inDegrees=no

Units are S.I. units (second, meters, Newtons, ...)
If the header above contains a line with 'inDegrees', this indicates whether rotational values are in degrees (yes) or radians (no).

endheader
time	pelvis_tilt	pelvis_list	pelvis_rotation	pelvis_tx	pelvis_ty	pelvis_tz	hip_flexion_r	hip_adduction_r	hip_rotation_r	knee_extension_r	ankle_dorsiflexion_r	hip_flexion_l	hip_adduction_l	hip_rotation_l	knee_extension_l	ankle_dorsiflexion_l	lumbar_extension	lumbar_bending	lumbar_rotation
210.00000000	-0.07835923	-0.02120853	-0.06265177	1.05078772	0.98684725	-0.53943695	-0.12529145	-0.01332474	-0.28514359	-0.26591393	0.38401036	0.52055355	-0.08021966	-0.28357698	-0.19709862	0.09934349	-0.00577012	0.03964967	0.05209988
210.01000000	-0.07758065	-0.01569184	-0.06820460	1.05204199	0.98622625	-0.54123639	-0.12636359	-0.02633540	-0.27911579	-0.28806362	0.38204503	0.52341860	-0.07874660	-0.28981746	-0.22447568	0.09357660	-0.00461859	0.03262090	0.05827956
210.02000000	-0.07645062	-0.00970661	-0.07407375	1.05344402	0.98585886	-0.54317437	-0.12497273	-0.04068869	-0.27183114	-0.31479372	0.37586732	0.52491035	-0.07669000	-0.29664864	-0.25101285	0.08619319	-0.00356218	0.02525996	0.06432417
210.03000000	-0.07495768	-0.00330203	-0.07998460	1.05496001	0.98573557	-0.54526965	-0.12082715	-0.05626941	-0.26342277	-0.34630532	0.36461426	0.52489619	-0.07385520	-0.30363914	-0.27597924	0.07785655	-0.00266315	0.01762708	0.06991330
210.04000000	-0.07310471	0.00346871	-0.08565044	1.05654919	0.98583657	-0.54753615	-0.11367832	-0.07292068	-0.25406151	-0.38264775	0.34761421	0.52332684	-0.07008472	-0.31043686	-0.29890669	0.06938090	-0.00198266	0.00977739	0.07473239
210.05000000	-0.07091282	0.01055419	-0.09079987	1.05816590	0.98613369	-0.54998143	-0.10334123	-0.09045338	-0.24394028	-0.42369060	0.32449988	0.52022362	-0.06525880	-0.31678550	-0.31955177	0.06163260	-0.00157254	0.00175745	0.07849715
210.06000000	-0.06842424	0.01790765	-0.09520342	1.05976201	0.98659316	-0.55260549	-0.08971231	-0.10865445	-0.23325930	-0.46910593	0.29530855	0.51566160	-0.05929694	-0.32252822	-0.33783998	0.05542456	-0.00146689	-0.00639453	0.08097670
210.07000000	-0.06570362	0.02548560	-0.09869591	1.06128958	0.98717889	-0.55539975	-0.07278349	-0.12729214	-0.22221394	-0.51836397	0.26055325	0.50975236	-0.05216262	-0.32760073	-0.35380542	0.05142047	-0.00167517	-0.01464408	0.08201317
210.08000000	-0.06283654	0.03324174	-0.10119183	1.06270326	0.98785583	-0.55834632	-0.05265108	-0.14611674	-0.21098648	-0.57074385	0.22124961	0.50262881	-0.04387172	-0.33201615	-0.36753795	0.05006297	-0.00217861	-0.02295155	0.08153548
210.09000000	-0.05992473	0.04111689	-0.10269179	1.06396240	0.98859336	-0.56141765	-0.02951853	-0.16485739	-0.19974188	-0.62535943	0.17888683	0.49443344	-0.03450324	-0.33584429	-0.37914584	0.05153573	-0.00293111	-0.03126055	0.07956566
210.10000000	-0.05707780	0.04902735	-0.10327942	1.06503276	0.98936804	-0.56457684	-0.00369273	-0.18321703	-0.18862679	-0.68119851	0.13533729	0.48530993	-0.02420941	-0.33918789	-0.38873676	0.05576253	-0.00386542	-0.03948586	0.07621673
210.11000000	-0.05440219	0.05685459	-0.10310934	1.06588761	0.99016580	-0.56777878	0.02442627	-0.20086844	-0.17777055	-0.73717218	0.09270851	0.47539700	-0.01322106	-0.34215883	-0.39641505	0.06244060	-0.00490374	-0.04750407	0.07168194
210.12000000	-0.05198869	0.06443957	-0.10238754	1.06650842	0.99098311	-0.57097233	0.05436184	-0.21745493	-0.16728697	-0.79217003	0.05315082	0.46482275	-0.00184473	-0.34485718	-0.40228917	0.07109912	-0.00597128	-0.05514956	0.06621639
210.13000000	-0.04990055	0.07158433	-0.10134680	1.06688515	0.99182705	-0.57410354	0.08558249	-0.23259845	-0.15727615	-0.84511616	0.01864427	0.45369824	0.00955130	-0.34735545	-0.40648147	0.08117109	-0.00701039	-0.06221826	0.06011264
210.14000000	-0.04816404	0.07806208	-0.10022009	1.06701605	0.99271431	-0.57711965	0.11752691	-0.24591653	-0.14782632	-0.89502071	-0.00920498	0.44210980	0.02056264	-0.34968974	-0.40913343	0.09206561	-0.00799256	-0.06847973	0.05367313
210.15000000	-0.04676351	0.08363543	-0.09921528	1.06690728	0.99366896	-0.57997342	0.14963031	-0.25704798	-0.13901623	-0.94102200	-0.02932631	0.43011069	0.03078382	-0.35185823	-0.41040198	0.10322987	-0.00892582	-0.07369708	0.04718239
210.16000000	-0.04564207	0.08808068	-0.09849431	1.06657207	0.99471938	-0.58262721	0.18134940	-0.26568477	-0.13091859	-0.98241531	-0.04127718	0.41771425	0.03984868	-0.35382698	-0.41044654	0.11419394	-0.00985567	-0.07765204	0.04088249
210.17000000	-0.04470824	0.09121437	-0.09815924	1.06602971	0.99589446	-0.58505635	0.21218466	-0.27160611	-0.12360489	-1.01866643	-0.04525164	0.40489068	0.04746995	-0.35554119	-0.40940978	0.12459561	-0.01085913	-0.08017149	0.03495435
210.18000000	-0.04384816	0.09291771	-0.09824652	1.06530426	0.99721953	-0.58725107	0.24169860	-0.27470884	-0.11715078	-1.04941026	-0.04200656	0.39156995	0.05347164	-0.35693986	-0.40739742	0.13418682	-0.01203226	-0.08115112	0.02950685
210.19000000	-0.04294151	0.09315469	-0.09872970	1.06442289	0.99871242	-0.58921691	0.26952992	-0.27502851	-0.11164080	-1.07443673	-0.03272368	0.37765186	0.05780866	-0.35797071	-0.40446319	0.14282560	-0.01347345	-0.08057181	0.02457445
210.20000000	-0.04187897	0.09198031	-0.09952947	1.06341409	1.00038023	-0.59097334	0.29540322	-0.27274614	-0.10717077	-1.09366773	-0.01883574	0.36302303	0.06057016	-0.35860279	-0.40060355	0.15045930	-0.01526511	-0.07850595	0.02012294
210.21000000	-0.04057835	0.08953755	-0.10052933	1.06230571	1.00221705	-0.59255092	0.31913401	-0.26817825	-0.10384652	-1.10712943	-0.00184811	0.34757857	0.06196580	-0.35883456	-0.39576487	0.15710418	-0.01745723	-0.07511235	0.01606197
210.22000000	-0.03899692	0.08604330	-0.10159419	1.06112317	1.00420306	-0.59398726	0.34062844	-0.26175030	-0.10177862	-1.11492416	0.01681717	0.33124512	0.06229705	-0.35869634	-0.38986220	0.16282592	-0.02005554	-0.07062038	0.01226218
210.23000000	-0.03713809	0.08176522	-0.10258941	1.05988795	1.00630506	-0.59532246	0.35987764	-0.25395672	-0.10107332	-1.11720498	0.03593620	0.31400120	0.06191796	-0.35824724	-0.38280646	0.16772358	-0.02301618	-0.06530567	0.00857447
210.24000000	-0.03505169	0.07699328	-0.10339742	1.05861658	1.00847844	-0.59659469	0.37694669	-0.24531295	-0.10182096	-1.11415538	0.05454844	0.29589156	0.06119147	-0.35756719	-0.37453474	0.17191807	-0.02624752	-0.05946095	0.00484876
210.25000000	-0.03282822	0.07201004	-0.10393015	1.05732041	1.01067026	-0.59783637	0.39195946	-0.23630610	-0.10408349	-1.10597511	0.07197363	0.27703306	0.06044771	-0.35674605	-0.36503794	0.17554444	-0.02961842	-0.05336634	0.00094987
210.26000000	-0.03058849	0.06706410	-0.10413580	1.05600578	1.01282306	-0.59907159	0.40508101	-0.22735100	-0.10788272	-1.09287255	0.08778920	0.25761131	0.05995010	-0.35587154	-0.35438061	0.17874693	-0.03297114	-0.04726350	-0.00323080
210.27000000	-0.02847036	0.06235023	-0.10399976	1.05467484	1.01487895	-0.60031474	0.41649967	-0.21875750	-0.11319119	-1.07506272	0.10178182	0.23786891	0.05987346	-0.35501823	-0.34270944	0.18167481	-0.03613679	-0.04133715	-0.00776866
210.28000000	-0.02661472	0.05799861	-0.10354006	1.05332657	1.01678349	-0.60157044	0.42641075	-0.21071267	-0.11992702	-1.05276963	0.11388834	0.21808704	0.06029603	-0.35423888	-0.33024936	0.18447810	-0.03895088	-0.03570627	-0.01270415
210.29000000	-0.02515237	0.05407366	-0.10279890	1.05195795	1.01848893	-0.60283457	0.43500321	-0.20327915	-0.12795388	-1.02623098	0.12413964	0.19856294	0.06120539	-0.35355935	-0.31728805	0.18730232	-0.04126713	-0.03042559	-0.01804493
210.30000000	-0.02419306	0.05058190	-0.10183171	1.05056514	1.01995661	-0.60409603	0.44244992	-0.19640882	-0.13708648	-0.99570296	0.13261756	0.17958597	0.06251582	-0.35297718	-0.30415172	0.19028243	-0.04296800	-0.02549616	-0.02377083
210.31000000	-0.02381757	0.04748644	-0.10069601	1.04914456	1.02115837	-0.60533898	0.44890148	-0.18996830	-0.14710146	-0.96146322	0.13942947	0.16141478	0.06409364	-0.35246379	-0.29117606	0.19353671	-0.04397134	-0.02088233	-0.02984003
210.32000000	-0.02407312	0.04472527	-0.09944181	1.04769380	1.02207694	-0.60654524	0.45448307	-0.18377197	-0.15775288	-0.92381083	0.14470017	0.14425789	0.06578599	-0.35196970	-0.27867650	0.19716125	-0.04423283	-0.01653167	-0.03619526
210.33000000	-0.02497216	0.04223009	-0.09810545	1.04621245	1.02270547	-0.60769656	0.45929394	-0.17761705	-0.16879059	-0.88306266	0.14857582	0.12825929	0.06744866	-0.35143211	-0.26692156	0.20122597	-0.04374473	-0.01239425	-0.04276855
210.34000000	-0.02649445	0.03994270	-0.09670759	1.04470258	1.02304642	-0.60877649	0.46340900	-0.17131584	-0.17997919	-0.83954716	0.15123263	0.11349043	0.06896897	-0.35078399	-0.25611245	0.20577267	-0.04253128	-0.00843787	-0.04948409
210.35000000	-0.02859180	0.03782652	-0.09525559	1.04316904	1.02310993	-0.60977165	0.46688234	-0.16472072	-0.19111478	-0.79359697	0.15288215	0.09994916	0.07028089	-0.34996388	-0.24637065	0.21081494	-0.04064195	-0.00465704	-0.05625900
210.36000000	-0.03119502	0.03587190	-0.09374961	1.04161935	1.02291201	-0.61067250	0.46975214	-0.15773911	-0.20203671	-0.74554289	0.15376738	0.08756538	0.07137080	-0.34892541	-0.23773443	0.21633984	-0.03814356	-0.00107466	-0.06300251
210.37000000	-0.03422183	0.03409495	-0.09219072	1.04006344	1.02247272	-0.61147332	0.47204664	-0.15033749	-0.21263183	-0.69571143	0.15414707	0.07621249	0.07227405	-0.34764577	-0.23016385	0.22231053	-0.03511240	0.00226365	-0.06961478
210.38000000	-0.03758487	0.03253079	-0.09058943	1.03851301	1.02181460	-0.61217187	0.47379074	-0.14253551	-0.22283017	-0.64442826	0.15427003	0.06572295	0.07306374	-0.34613224	-0.22355321	0.22866955	-0.03162759	0.00530061	-0.07598662
210.39000000	-0.04119874	0.03122292	-0.08897243	1.03698080	1.02096125	-0.61276859	0.47501282	-0.13439288	-0.23259215	-0.59202873	0.15434480	0.05590612	0.07383418	-0.34442592	-0.21774906	0.23534216	-0.02776633	0.00798158	-0.08200128
210.40000000	-0.04498525	0.03021113	-0.08738613	1.03547968	1.01993635	-0.61326573	0.47575130	-0.12599279	-0.24188968	-0.53887539	0.15451208	0.04656640	0.07468224	-0.34260185	-0.21257189	0.24223989	-0.02360138	0.01026898	-0.08753921
210.41000000	-0.04887647	0.02951999	-0.08589580	1.03402187	1.01876284	-0.61366649	0.47606045	-0.11742565	-0.25068521	-0.48538075	0.15482750	0.03751966	0.07568931	-0.34076483	-0.20783905	0.24926419	-0.01920080	0.01215418	-0.09248563
210.42000000	-0.05281539	0.02915001	-0.08458012	1.03261821	1.01746245	-0.61397422	0.47601475	-0.10877668	-0.25891357	-0.43203188	0.15526009	0.02860661	0.07690646	-0.33904085	-0.20338692	0.25631070	-0.01462952	0.01366475	-0.09674062
210.43000000	-0.05675451	0.02907261	-0.08352153	1.03127770	1.01605538	-0.61419195	0.47571119	-0.10011932	-0.26647212	-0.37941220	0.15570792	0.01970195	0.07834447	-0.33756460	-0.19909025	0.26327429	-0.00995209	0.01486602	-0.10023036
210.44000000	-0.06065298	0.02922951	-0.08279372	1.03000725	1.01456018	-0.61432210	0.47526880	-0.09151512	-0.27322288	-0.32821487	0.15602824	0.01071923	0.07996940	-0.33646418	-0.19487716	0.27005519	-0.00523563	0.01585678	-0.10291834
210.45000000	-0.06447319	0.02953599	-0.08244797	1.02881180	1.01299372	-0.61436639	0.47482512	-0.08301892	-0.27900815	-0.27924259	0.15607592	0.00161134	0.08170348	-0.33584452	-0.19073844	0.27656601	-0.00055209	0.01676037	-0.10481497
210.46000000	-0.06817782	0.02988717	-0.08250029	1.02769463	1.01137139	-0.61432604	0.47452925	-0.07468661	-0.28367766	-0.23338945	0.15574170	-0.00763224	0.08343036	-0.33577174	-0.18673069	0.28273956	0.00402122	0.01771296	-0.10598423
